<svg xmlns="http://www.w3.org/2000/svg" viewBox="0 0 197.87 205.38"><defs><style>.cls-1{font-size:26px;font-family:FiraMonoOT, Fira Mono OT;}.cls-2{font-size:43px;font-family:FiraMonoOT-Bold, Fira Mono OT;font-weight:700;}</style></defs><title>bgt_svg</title><g id="Layer_2" data-name="Layer 2"><g id="Layer_1-2" data-name="Layer 1"><text class="cls-1" transform="matrix(0.33, -0.95, 0.95, 0.33, 26.64, 83.52)">b</text><text class="cls-1" transform="matrix(0.49, -0.87, 0.87, 0.49, 31.44, 69.44)">l</text><text class="cls-1" transform="matrix(0.64, -0.77, 0.77, 0.64, 38.66, 56.49)">a</text><text class="cls-1" transform="matrix(0.77, -0.64, 0.64, 0.77, 48.11, 45.03)">c</text><text class="cls-1" transform="translate(59.47 35.46) rotate(-29.25)">k</text><text class="cls-1" transform="translate(72.34 28.15) rotate(-18.33)">g</text><text class="cls-1" transform="matrix(0.99, -0.12, 0.12, 0.99, 86.35, 23.42)">i</text><text class="cls-1" transform="translate(101.04 21.63) rotate(4.36)">r</text><text class="cls-1" transform="translate(115.69 22.73) rotate(16.7)">l</text><text class="cls-1" transform="translate(129.85 26.9) rotate(28.09)">.</text><text class="cls-1" transform="translate(142.97 33.83) rotate(39.05)">t</text><text class="cls-1" transform="translate(154.53 43.13) rotate(49.65)">e</text><text class="cls-1" transform="translate(164.2 54.4) rotate(60.07)">c</text><text class="cls-1" transform="translate(171.66 67.23) rotate(70.38)">h</text><text class="cls-1" transform="translate(176.96 119.7) rotate(114.17)">b</text><text class="cls-1" transform="translate(170.9 133.35) rotate(123.33)">l</text><text class="cls-1" transform="translate(162.75 145.85) rotate(132.84)">a</text><text class="cls-1" transform="matrix(-0.8, 0.6, -0.6, -0.8, 152.7, 156.81)">c</text><text class="cls-1" transform="translate(140.94 165.84) rotate(153.46)">k</text><text class="cls-1" transform="translate(127.77 172.53) rotate(164.83)">g</text><text class="cls-1" transform="translate(113.55 176.48) rotate(176.79)">i</text><text class="cls-1" transform="matrix(-0.99, -0.16, 0.16, -0.99, 98.85, 177.4)">r</text><text class="cls-1" transform="translate(84.28 175.19) rotate(-159.13)">l</text><text class="cls-1" transform="translate(70.44 169.98) rotate(-147.79)">.</text><text class="cls-1" transform="translate(57.87 162.13) rotate(-137.15)">t</text><text class="cls-1" transform="translate(46.93 152.05) rotate(-127.11)">e</text><text class="cls-1" transform="translate(37.89 140.18) rotate(-117.53)">c</text><text class="cls-1" transform="translate(30.95 126.98) rotate(-108.29)">h</text><circle cx="186.56" cy="97.91" r="5.76"/><circle cx="14.06" cy="98.91" r="5.76"/><text class="cls-2" transform="translate(45.44 111.7)">:bgt</text></g></g></svg>
